# xmcd CD database file
#
# Track frame offsets:
#	150
#	27032
#	44190
#	62385
#	81482
#	99880
#	118772
#	134737
#	147260
#	163787
#	177612
#	195880
#	216790
#	240112
#
# Disc length: 3451 seconds
#
# Revision: 0
# Processed by: cddbd v1.5.2PL0 Copyright (c) Steve Scherf et al.
# Submitted via: CDex 1.70beta2
#
DISCID=c30d790e
DTITLE=Christoph Pauli un die "LateNight Band" - Best of
DYEAR=1994
DGENRE=Blues
TTITLE0=Just the two of us
TTITLE1=Half a Minute
TTITLE2=Georgy Porgy
TTITLE3=That's what friends are for
TTITLE4=Ebony and Ivory
TTITLE5=Fantasy
TTITLE6=What a fool believes
TTITLE7=Walk between the raindrops
TTITLE8=Dream a little dream
TTITLE9=Claire
TTITLE10=Saving all my love for you
TTITLE11=New York Rio Tokio
TTITLE12=Heal The World
TTITLE13=You
EXTD=YEAR: 1994
EXTT0=
EXTT1=
EXTT2=
EXTT3=
EXTT4=
EXTT5=
EXTT6=
EXTT7=
EXTT8=
EXTT9=
EXTT10=
EXTT11=
EXTT12=
EXTT13=
PLAYORDER=
